<svg xmlns="http://www.w3.org/2000/svg" width="1203" height="226" viewBox="0 0 1203 226">
  <metadata><?xpacket begin="﻿" id="W5M0MpCehiHzreSzNTczkc9d"?>
<x:xmpmeta xmlns:x="adobe:ns:meta/" x:xmptk="Adobe XMP Core 5.6-c140 79.160451, 2017/05/06-01:08:21        ">
   <rdf:RDF xmlns:rdf="http://www.w3.org/1999/02/22-rdf-syntax-ns#">
      <rdf:Description rdf:about=""/>
   </rdf:RDF>
</x:xmpmeta>
                                                                                                    
                                                                                                    
                                                                                                    
                                                                                                    
                                                                                                    
                                                                                                    
                                                                                                    
                                                                                                    
                                                                                                    
                                                                                                    
                                                                                                    
                                                                                                    
                                                                                                    
                                                                                                    
                                                                                                    
                                                                                                    
                                                                                                    
                                                                                                    
                                                                                                    
                                                                                                    
                           
<?xpacket end="w"?></metadata>
<defs>
    <style>
      .cls-1 {
        fill: #848484;
      }

      .cls-1, .cls-2, .cls-3 {
        fill-rule: evenodd;
      }

      .cls-2 {
        fill: #5f5f5f;
      }

      .cls-3 {
        fill: #f25858;
      }
    </style>
  </defs>
  <path id="A_School_for_Software_Engineers" data-name="A School for Software Engineers" class="cls-1" d="M267.319,201.543l-18.108-46.232h-4.5l-18.2,46.232h5.417L237.59,186.9h18.455l5.732,14.644h5.542Zm-27.84-19.463,5.417-14.266a59.668,59.668,0,0,0,1.984-6.646q1.1,3.938,2.142,6.646l5.354,14.266h-14.9Zm74.183-.472q-2.724-2.961-9.968-5.543a36.93,36.93,0,0,1-6.408-2.819,8.292,8.292,0,0,1-2.977-2.8,7.769,7.769,0,0,1-.881-3.921,6.018,6.018,0,0,1,2.393-5.07,10.726,10.726,0,0,1,6.645-1.827,28.537,28.537,0,0,1,11.086,2.394l1.669-4.661a31.18,31.18,0,0,0-12.629-2.52q-6.582,0-10.582,3.15a10.222,10.222,0,0,0-4,8.471,12.027,12.027,0,0,0,2.755,8.22q2.755,3.15,9.181,5.449a45.015,45.015,0,0,1,6.85,2.928,8.952,8.952,0,0,1,3.212,2.819,7.263,7.263,0,0,1,.96,3.921,6.664,6.664,0,0,1-2.708,5.653q-2.709,2.031-8.062,2.031a32.465,32.465,0,0,1-6.614-.692,33.162,33.162,0,0,1-6.173-1.89v5.165q4.41,2.111,12.6,2.11,7.558,0,11.967-3.4a11.294,11.294,0,0,0,4.409-9.48A10.9,10.9,0,0,0,313.662,181.608Zm33.871,18.77v-4.63a23.246,23.246,0,0,1-8.849,1.858q-5.04,0-7.606-3.4t-2.567-9.763q0-13.416,10.519-13.416a16.843,16.843,0,0,1,3.622.457,24.519,24.519,0,0,1,3.779,1.149l1.606-4.441a16.436,16.436,0,0,0-3.9-1.259,23.588,23.588,0,0,0-4.976-.536q-7.716,0-11.889,4.724t-4.173,13.385q0,8.441,4.11,13.054t11.606,4.614a18.854,18.854,0,0,0,8.723-1.8h0Zm37.037,1.165V179.025q0-6.551-3.165-9.558t-9.5-3.008a14.286,14.286,0,0,0-6.5,1.433,10.667,10.667,0,0,0-4.393,3.921H360.7a32.3,32.3,0,0,0,.252-4.44V152.539h-5.228v49h5.228V183.5q0-6.738,2.5-9.7t7.953-2.96q4.094,0,6.015,2.079t1.921,6.3v22.329h5.228Zm36.265-30.328q-4.269-4.818-11.511-4.819-7.5,0-11.716,4.709t-4.22,13.148a21.724,21.724,0,0,0,1.953,9.511A14.338,14.338,0,0,0,400.883,200a15.559,15.559,0,0,0,8.22,2.173q7.5,0,11.747-4.74t4.252-13.18Q425.1,176.033,420.835,171.215Zm-19.416,2.992q2.613-3.37,7.747-3.37,5.2,0,7.858,3.417t2.661,10q0,6.645-2.661,10.094t-7.8,3.448q-5.133,0-7.779-3.464t-2.645-10.078Q398.805,177.577,401.419,174.207Zm58.373-2.992q-4.267-4.818-11.511-4.819-7.5,0-11.715,4.709t-4.221,13.148a21.724,21.724,0,0,0,1.953,9.511A14.34,14.34,0,0,0,439.841,200a15.554,15.554,0,0,0,8.22,2.173q7.494,0,11.747-4.74t4.251-13.18Q464.059,176.033,459.792,171.215Zm-19.416,2.992q2.615-3.37,7.748-3.37,5.2,0,7.857,3.417t2.662,10q0,6.645-2.662,10.094t-7.794,3.448q-5.135,0-7.779-3.464t-2.646-10.078Q437.762,177.577,440.376,174.207Zm38.076-21.668h-5.228v49h5.228v-49Zm43.4,14.487h-8.787V164.79q0-4.345,1.418-6.314a5.03,5.03,0,0,1,4.377-1.969,17.3,17.3,0,0,1,5.165.977l1.354-4.189a22.867,22.867,0,0,0-6.424-1.1q-11.118,0-11.118,12.723v1.921l-6.172,1.89v2.362h6.172v30.454h5.228V171.089h8.787v-4.063Zm31.824,4.189q-4.268-4.818-11.511-4.819-7.5,0-11.715,4.709t-4.22,13.148a21.724,21.724,0,0,0,1.952,9.511A14.346,14.346,0,0,0,533.723,200a15.556,15.556,0,0,0,8.22,2.173q7.494,0,11.747-4.74t4.252-13.18Q557.942,176.033,553.674,171.215Zm-19.416,2.992q2.614-3.37,7.748-3.37,5.2,0,7.857,3.417t2.662,10q0,6.645-2.662,10.094t-7.794,3.448q-5.135,0-7.779-3.464t-2.646-10.078Q531.644,177.577,534.258,174.207Zm42.643-5.984a15.169,15.169,0,0,0-4.63,5.2h-0.252l-0.6-6.393h-4.315v34.517h5.228V183.025a12.4,12.4,0,0,1,2.976-8.472,9.2,9.2,0,0,1,7.165-3.4,17.807,17.807,0,0,1,3.779.472l0.725-4.85a20.463,20.463,0,0,0-4.126-.378A10.424,10.424,0,0,0,576.9,168.223Zm57.334,13.385q-2.726-2.961-9.968-5.543a36.911,36.911,0,0,1-6.409-2.819,8.279,8.279,0,0,1-2.976-2.8,7.768,7.768,0,0,1-.882-3.921,6.021,6.021,0,0,1,2.393-5.07,10.729,10.729,0,0,1,6.646-1.827,28.532,28.532,0,0,1,11.085,2.394l1.669-4.661a31.179,31.179,0,0,0-12.628-2.52q-6.583,0-10.582,3.15a10.22,10.22,0,0,0-4,8.471,12.023,12.023,0,0,0,2.756,8.22q2.755,3.15,9.18,5.449a44.97,44.97,0,0,1,6.85,2.928,8.935,8.935,0,0,1,3.212,2.819,7.254,7.254,0,0,1,.961,3.921,6.665,6.665,0,0,1-2.709,5.653q-2.709,2.031-8.062,2.031a32.472,32.472,0,0,1-6.614-.692,33.152,33.152,0,0,1-6.172-1.89v5.165q4.408,2.111,12.6,2.11,7.558,0,11.968-3.4a11.3,11.3,0,0,0,4.409-9.48A10.905,10.905,0,0,0,634.235,181.608Zm36.878-10.393q-4.268-4.818-11.51-4.819-7.5,0-11.716,4.709t-4.22,13.148a21.724,21.724,0,0,0,1.952,9.511A14.346,14.346,0,0,0,651.162,200a15.559,15.559,0,0,0,8.22,2.173q7.5,0,11.747-4.74t4.252-13.18Q675.381,176.033,671.113,171.215ZM651.7,174.207q2.613-3.37,7.747-3.37,5.2,0,7.858,3.417t2.661,10q0,6.645-2.661,10.094t-7.795,3.448q-5.133,0-7.779-3.464t-2.645-10.078Q649.084,177.577,651.7,174.207Zm48.4-7.181h-8.786V164.79q0-4.345,1.417-6.314a5.032,5.032,0,0,1,4.377-1.969,17.29,17.29,0,0,1,5.165.977l1.354-4.189a22.867,22.867,0,0,0-6.424-1.1q-11.118,0-11.117,12.723v1.921l-6.173,1.89v2.362h6.173v30.454h5.228V171.089H700.1v-4.063Zm13.385,29.163a6.985,6.985,0,0,1-1.48-4.787V171.089h10.015v-4.063H712.008v-8h-3.024l-2.2,7.369-4.945,2.173v2.52h4.945v20.534q0,10.551,10.015,10.55a18.854,18.854,0,0,0,2.976-.268,9.544,9.544,0,0,0,2.5-.677v-4a18.506,18.506,0,0,1-4.724.63A5.151,5.151,0,0,1,713.488,196.189Zm50.075,5.354,9.542-34.517h-5.417q-6.015,23.053-6.566,25.415a32.973,32.973,0,0,0-.677,3.5h-0.252a66.853,66.853,0,0,0-2.394-9.1l-6.172-19.81h-5.669l-6.33,19.81q-0.567,1.669-1.339,4.519T737.171,196h-0.252a80.14,80.14,0,0,0-2-9.164q-1.747-6.8-5.086-19.81h-5.48l9.417,34.517h6.047l6.519-20.187q0.945-2.993,2.2-8.5h0.252q1.638,6.582,2.236,8.44l6.33,20.25h6.205Zm40.878,0V177.986q0-6.046-2.976-8.787t-9.149-2.74a24.2,24.2,0,0,0-6.094.788,24.57,24.57,0,0,0-5.59,2.173l1.606,4A22.786,22.786,0,0,1,792,170.774q3.843,0,5.59,1.937t1.748,6v2.142l-5.858.189q-16.722.5-16.723,10.96,0,4.881,2.914,7.527t8.046,2.645a15.685,15.685,0,0,0,6.409-1.15,14.519,14.519,0,0,0,5.149-4.393h0.252l1.04,4.913h3.873Zm-20.486-5.165a5.382,5.382,0,0,1-1.717-4.314,5.842,5.842,0,0,1,2.756-5.339q2.755-1.716,8.991-1.936l5.228-.221v3.118a9.9,9.9,0,0,1-2.787,7.5,10.609,10.609,0,0,1-7.669,2.677A7.122,7.122,0,0,1,783.955,196.378Zm41.051-28.155a15.176,15.176,0,0,0-4.629,5.2h-0.252l-0.6-6.393h-4.315v34.517h5.228V183.025a12.4,12.4,0,0,1,2.976-8.472,9.2,9.2,0,0,1,7.165-3.4,17.807,17.807,0,0,1,3.779.472l0.724-4.85a20.452,20.452,0,0,0-4.125-.378A10.43,10.43,0,0,0,825.006,168.223Zm37.084,33.43a27.636,27.636,0,0,0,5.244-1.716v-4.661a27.8,27.8,0,0,1-11.023,2.33q-5.291,0-8.2-3.149t-3.071-9.228h23.778v-3.306q0-6.992-3.779-11.259a13.018,13.018,0,0,0-10.267-4.268,13.654,13.654,0,0,0-11.039,4.913q-4.11,4.914-4.11,13.259,0,8.283,4.425,12.944t12.078,4.661A29.42,29.42,0,0,0,862.09,201.653ZM861,173.4q2.2,2.63,2.2,7.574H845.162a12.489,12.489,0,0,1,2.913-7.5,8.539,8.539,0,0,1,6.63-2.708A7.762,7.762,0,0,1,861,173.4Zm59.932,23.352H900.622V179.813h19.085v-4.724H900.622V160.255h20.314V155.5H895.268v46.043h25.668v-4.787Zm38.264,4.787V179.025q0-6.613-3.149-9.621t-9.385-3.008a14.633,14.633,0,0,0-6.456,1.4,10.676,10.676,0,0,0-4.5,3.952h-0.252l-0.85-4.724h-4.252v34.517h5.228V183.434q0-6.738,2.52-9.668t7.936-2.929q4.094,0,6.015,2.079t1.921,6.3v22.329H959.2Zm27.053-34.517a17.517,17.517,0,0,0-4.881-.63q-6.235,0-9.637,3.071t-3.4,8.739a11.013,11.013,0,0,0,1.685,6.047A9.32,9.32,0,0,0,974.38,188a10.594,10.594,0,0,0-3.181,2.74,5.558,5.558,0,0,0-1.007,3.307,4.92,4.92,0,0,0,.9,2.929,5.47,5.47,0,0,0,2.22,1.858,10.259,10.259,0,0,0-5.668,3.118,7.99,7.99,0,0,0-2.016,5.448,8.135,8.135,0,0,0,3.669,7.117q3.669,2.52,10.44,2.52,8.818,0,13.416-3.008a9.8,9.8,0,0,0,4.6-8.739,8.21,8.21,0,0,0-3.007-6.866q-3.009-2.361-8.614-2.362h-6.11a8.5,8.5,0,0,1-4-.677,2.254,2.254,0,0,1-1.165-2.094q0-2.677,3.338-4.441a15.735,15.735,0,0,0,2.9.252q6.047,0,9.511-3.023a10.2,10.2,0,0,0,3.465-8.094,11.228,11.228,0,0,0-2.268-6.9l6.393-.756v-3.307H986.253Zm-13.605,35.43a8.259,8.259,0,0,1,5.543-1.7h6.267q4.787,0,6.519,1.086t1.732,3.89a6.028,6.028,0,0,1-3.165,5.338q-3.165,1.968-9.747,1.968a13.044,13.044,0,0,1-6.771-1.448,4.686,4.686,0,0,1-2.362-4.252A6.077,6.077,0,0,1,972.648,202.456Zm2.834-30.265a7.671,7.671,0,0,1,5.669-1.984q7.748,0,7.748,7.779,0,7.433-7.653,7.432a8.174,8.174,0,0,1-5.7-1.858,7.025,7.025,0,0,1-2.047-5.48Q973.5,174.176,975.482,172.191Zm35.018-5.165h-5.22v34.517h5.22V167.026Zm-4.78-6.724a3,3,0,0,0,2.2.866,3.042,3.042,0,0,0,2.17-.866,3.458,3.458,0,0,0,.92-2.629,3.407,3.407,0,0,0-.92-2.614,3.253,3.253,0,0,0-4.37-.016,3.466,3.466,0,0,0-.89,2.63A3.528,3.528,0,0,0,1005.72,160.3Zm44.72,41.241V179.025q0-6.613-3.15-9.621t-9.39-3.008a14.613,14.613,0,0,0-6.45,1.4,10.639,10.639,0,0,0-4.51,3.952h-0.25l-0.85-4.724h-4.25v34.517h5.23V183.434q0-6.738,2.52-9.668t7.93-2.929q4.1,0,6.02,2.079t1.92,6.3v22.329h5.23Zm31.29,0.11a27.835,27.835,0,0,0,5.24-1.716v-4.661a27.8,27.8,0,0,1-11.02,2.33q-5.295,0-8.21-3.149t-3.07-9.228h23.78v-3.306q0-6.992-3.78-11.259a13.018,13.018,0,0,0-10.27-4.268,13.621,13.621,0,0,0-11.03,4.913q-4.11,4.914-4.11,13.259,0,8.283,4.42,12.944t12.08,4.661A29.461,29.461,0,0,0,1081.73,201.653Zm-1.09-28.249q2.2,2.63,2.2,7.574H1064.8a12.451,12.451,0,0,1,2.91-7.5,8.545,8.545,0,0,1,6.63-2.708A7.762,7.762,0,0,1,1080.64,173.4Zm37.27,28.249a27.685,27.685,0,0,0,5.25-1.716v-4.661a27.844,27.844,0,0,1-11.03,2.33c-3.52,0-6.26-1.049-8.2-3.149s-2.97-5.175-3.07-9.228h23.78v-3.306q0-6.992-3.78-11.259a13.032,13.032,0,0,0-10.27-4.268,13.655,13.655,0,0,0-11.04,4.913q-4.11,4.914-4.11,13.259,0,8.283,4.43,12.944t12.07,4.661A29.461,29.461,0,0,0,1117.91,201.653Zm-1.08-28.249c1.46,1.753,2.2,4.278,2.2,7.574h-18.05a12.518,12.518,0,0,1,2.92-7.5,8.545,8.545,0,0,1,6.63-2.708A7.762,7.762,0,0,1,1116.83,173.4Zm26.51-5.181a15.23,15.23,0,0,0-4.63,5.2h-0.25l-0.6-6.393h-4.31v34.517h5.23V183.025a12.42,12.42,0,0,1,2.97-8.472,9.209,9.209,0,0,1,7.17-3.4,17.839,17.839,0,0,1,3.78.472l0.72-4.85a20.429,20.429,0,0,0-4.12-.378A10.445,10.445,0,0,0,1143.34,168.223Zm36.65,18.2q-2.16-2.267-8.3-4.5a51.288,51.288,0,0,1-6.05-2.551,6.948,6.948,0,0,1-2.28-1.858,3.863,3.863,0,0,1-.71-2.362,3.6,3.6,0,0,1,1.89-3.213,10.838,10.838,0,0,1,5.6-1.165,24.98,24.98,0,0,1,9.42,2.142l1.86-4.252a27.556,27.556,0,0,0-10.9-2.268q-5.985,0-9.41,2.441a7.748,7.748,0,0,0-3.44,6.661,7.94,7.94,0,0,0,.99,4.063,9.414,9.414,0,0,0,3.03,3.039,36.893,36.893,0,0,0,6.85,3.133,27.627,27.627,0,0,1,6.82,3.386,4.508,4.508,0,0,1-.46,7.432,12.46,12.46,0,0,1-6.3,1.307,22.341,22.341,0,0,1-5.5-.724,25.849,25.849,0,0,1-5.33-1.984V200q3.84,2.174,10.7,2.173,6.495,0,10.08-2.614a8.629,8.629,0,0,0,3.59-7.432A7.973,7.973,0,0,0,1179.99,186.426Z"/>
  <path class="cls-2" d="M739.8,104.021c8.574,1.424,16.97,4.05,25.645,4.85,6.79,0.63,15.807.877,20.4-5.319,7.534-10.169-.09-18.824-9.143-23.526-9.029-4.684-18.928-7.707-26.9-14.341-8.371-6.98-11.378-18.383-9.192-29.1,4-19.6,22.3-22.691,39.189-21.388,8.745,0.671,17.4,2.3,26.125,3.172-2.779,7.213-4.535,11.787-6.051,15.712-0.252.652-13.718-2.913-15.035-3.155-8.53-1.57-18.745-1.451-24.527,6.221-5.645,7.5-.077,15.541,6.785,19.3,12.707,6.963,33.586,10.714,38.076,26.884,2.763,9.949,1.626,21.876-5.421,29.694-6.948,7.715-18.525,10.383-28.473,10.787a128.143,128.143,0,0,1-17.111-.559C738.705,121.794,737.47,119.659,739.8,104.021ZM554.97,122.891h-16.7c0-14.747,0-29.478-.33-44.226-0.225-10.231.015-21.414-12.121-23.829-6.613-1.315-14.361.895-18.334,6.541-4.156,5.9-4.5,13.441-4.858,20.42-0.428,8.319-.49,16.631-0.428,24.958,0.041,5.349.128,10.692,0.128,16.036H485.705c-0.256-3.046-.677-5.748-0.677-8.434C484.977,90.531,485,66.709,485,39.618c7.326,3.211,12.59,5.516,19.029,8.338,2.932-1.435,8.121-4.909,13.816-6.6,4.115-1.22,9.462-1.229,13.725-1.093a24.741,24.741,0,0,1,11.78,3c8.131,4.738,10.909,14.562,11.869,23.439,0.893,8.223.494,16.6,0.472,24.865-0.024,8.7-.116,17.394-0.132,26.091C555.557,119.008,555.266,120.353,554.97,122.891ZM398,42.524h16.7c0,15.523-.051,30.684.014,45.835,0.077,14.916,5.236,22.167,15.594,22.145,11.877-.02,19.511-8.635,19.752-22.943,0.24-14.812.05-29.629,0.05-44.928h17.344v80.152c-4.165.2-8.086,0.394-12.336,0.605-1.244-3.078-2.377-5.872-3.855-9.521-8.645,9.01-19.129,11.153-30.672,9.979-13.846-1.419-21.428-7.009-22.282-20.926C397.089,83.011,398,62.965,398,42.524ZM231.234,15.775h15.933V107.26H291.4v15.508H231.234V15.775ZM883.765,45.841c-1.93,4.769-3.568,8.835-5.311,13.149-12.386-3.877-24.564-8.736-33.756,4.583-8.83,12.824-7.127,43.71,11.927,45.514,7.757,0.735,16.018-1.663,23.438-3.672,3.324,15.077,1.833,17.217-13.4,18.329-9.029.658-20.122,0.815-28.216-3.908-17.437-10.174-19.587-41.205-12.687-58,5.677-13.819,18.5-22.649,33.309-22.091C866.91,40.044,876.751,42.16,883.765,45.841Zm-249.664,0c-1.926,4.769-3.568,8.835-5.306,13.149-12.387-3.877-24.569-8.736-33.759,4.583-8.83,12.824-7.127,43.71,11.929,45.514,7.753,0.735,16.018-1.663,23.438-3.672,3.325,15.077,1.829,17.217-13.4,18.329-9.029.658-20.123,0.815-28.22-3.908-17.436-10.174-19.586-41.205-12.686-58C581.773,48.018,594.6,39.187,609.4,39.746,617.246,40.044,627.087,42.16,634.1,45.841Zm406.279-3.427c-28.98-9.818-51.8,7.317-51.832,38.907-0.017,20.035,8.094,38.789,29.342,42.179,16.77,2.681,35.46-2.493,42.16-19.77,1.97-5.108,3.76-11.488,3.99-17C1064.81,68.878,1058.77,48.643,1040.38,42.414Zm-10.51,66.729c-12.57,1.353-20.72-6.938-23.29-18.6-1.89-8.555-1.4-19.025,3.13-26.687,5.24-8.88,17.99-12.416,26.81-6.254,6.72,4.693,9.45,13.145,9.99,21.076C1047.31,90.794,1044.38,107.577,1029.87,109.143Zm102.06-66.729c-28.99-9.818-51.81,7.317-51.84,38.907-0.02,20.035,8.1,38.789,29.34,42.179,16.77,2.681,35.46-2.493,42.16-19.77a57.255,57.255,0,0,0,4-17C1156.35,68.878,1150.31,48.643,1131.93,42.414Zm-10.52,66.729c-12.57,1.353-20.71-6.938-23.29-18.6-1.88-8.555-1.39-19.025,3.13-26.687,5.24-8.88,17.99-12.416,26.81-6.254,6.72,4.693,9.46,13.145,9.99,21.076C1138.86,90.794,1135.93,107.577,1121.41,109.143ZM378,61.776a22.085,22.085,0,0,0-2.982-10.582c-3.747-5.862-11.435-9.368-17.943-10.361A61.834,61.834,0,0,0,332.4,42.023c-1.2.32-13.871,4.922-13.655,5.393,1.963,4.271,3.645,7.936,5.25,11.45,32.484-7.179,38.372-4.971,36.805,14.67,0.023-.4-15.787.439-17.414,0.593-8.174.77-17.142,2.057-24.139,6.74-5.937,3.969-9.1,12.416-8.942,19.3,0.162,7.2,2.5,15.255,8.748,19.351,9.92,6.505,25.638,6.571,35.581.109,0.937-.606,8.216-5.98,7.818-6.924,1.947,4.62,3.237,7.659,4.531,10.726,4.056-.239,7.3-0.434,11.1-0.663,0-18.309-.057-36.624.045-54.926C378.13,65.862,378.135,63.815,378,61.776ZM340.37,110.592c-4.638-.718-9.628-4.19-10.752-8.967-2.676-11.417,11.071-15.053,19.288-16.52,1.188-.21,12.324-1.76,12.32-1.967C361.659,102.424,353.292,112.588,340.37,110.592Zm630.79,13.156H954.377V74.631q0-9.242-3.665-13.795t-11.626-4.552q-10.527,0-15.466,6.395t-4.945,21.411v39.657H901.966V11.356h16.709V39.888a135.464,135.464,0,0,1-.853,14.666h1.068a23.372,23.372,0,0,1,9.492-8.958,30.224,30.224,0,0,1,14.187-3.177q28.587,0,28.591,29.252v52.079Zm-250.855,0H703.523V74.631q0-9.242-3.666-13.795t-11.626-4.552q-10.525,0-15.465,6.395T667.82,84.091v39.657H651.111V11.356H667.82V39.888a135.21,135.21,0,0,1-.853,14.666h1.069a23.372,23.372,0,0,1,9.492-8.958,30.22,30.22,0,0,1,14.186-3.177q28.587,0,28.591,29.252v52.079ZM1172.72,11.06h15.3V124.043h-15.3V11.06Z"/>
  <path id="Shape_7_copy" data-name="Shape 7 copy" class="cls-3" d="M193.439,17.617a11.943,11.943,0,0,0-17.081,0L60.73,134.942a12.386,12.386,0,0,0,0,17.337,11.942,11.942,0,0,0,17.079,0L193.453,34.951A12.387,12.387,0,0,0,193.439,17.617Zm-17.16,138.764-26.245,26.628a12.4,12.4,0,0,0,0,17.336,11.946,11.946,0,0,0,17.081,0l26.247-26.63a12.391,12.391,0,0,0,0-17.346A11.968,11.968,0,0,0,176.279,156.381Zm17.26-69.522a11.948,11.948,0,0,0-17.081,0l-49.2,49.928a12.367,12.367,0,0,0,0,17.325,11.945,11.945,0,0,0,17.085,0l49.2-49.917A12.386,12.386,0,0,0,193.539,86.859ZM56.7,17.7a11.953,11.953,0,0,0-17.081,0L13.364,44.323a12.376,12.376,0,0,0,0,17.337,11.94,11.94,0,0,0,17.076,0L56.7,35.024A12.38,12.38,0,0,0,56.7,17.7ZM76,84.776L125.2,34.84a12.362,12.362,0,0,0,0-17.328,11.954,11.954,0,0,0-17.082,0L58.922,67.446a12.365,12.365,0,0,0,0,17.331A11.949,11.949,0,0,0,76,84.776Z"/>
</svg>
